<svg width="781" height="109" viewBox="0 0 781 109" fill="none" xmlns="http://www.w3.org/2000/svg">
<mask id="path-1-inside-1_21_63" fill="white">
<path d="M30.5368 74.1871C30.2385 76.8823 29.7607 79.1523 29.1036 81.0007C28.4443 82.849 27.6164 84.2476 26.6177 85.1963C25.619 86.1451 24.4603 86.6195 23.1439 86.6195C21.8274 86.6195 20.7639 86.1627 19.9576 85.2455C19.1491 84.3319 18.5979 82.9685 18.2996 81.1518C18.0013 79.3386 17.9602 77.0861 18.1721 74.3909H0.4529C-0.396634 82.5433 -0.0507674 89.1636 1.48834 94.2589C3.0296 99.3541 5.40744 103.082 8.62615 105.451C11.8449 107.816 15.537 109 19.7004 109C24.5447 109 28.9739 107.542 32.9903 104.622C37.0066 101.705 40.3313 97.6288 42.9664 92.3965C45.6014 87.1642 47.2789 81.092 48.003 74.1871L48.5499 68.8001C48.6645 67.6792 48.7942 66.4071 48.9477 65.0086C49.2698 64.0247 49.4859 62.6191 49.9183 61.5649C52.0799 55.9425 60.2943 52.4286 56.8356 44.6978C55.1063 41.5352 52.9446 39.0755 52.1426 34.7919C52.108 33.7834 52.2096 32.7819 52.3112 31.784L55.3938 1.45135H37.9297L35.1476 28.8111C35.0482 29.7951 34.9466 30.786 34.8817 31.784C34.3543 39.7783 39.5423 42.238 42.3524 46.8062C42.5686 47.509 42.7848 48.2118 42.5686 48.9146C38.8938 54.5369 33.0573 56.6453 31.4836 65.0086C31.328 66.4071 31.1983 67.6792 31.0837 68.8001L30.5368 74.1871Z"/>
<path d="M110.387 6.52545C105.893 2.17515 100.607 0 94.5308 0C88.4544 0 83.3226 2.02053 78.2449 6.0616C73.1671 10.1027 68.8654 16.0589 65.3376 23.9337C64.2784 26.2951 63.3294 28.8216 62.4842 31.5133C62.2875 32.4094 62.121 33.3265 62.1145 34.2612C62.2377 39.4233 66.3449 42.2344 66.1287 47.5054C65.9126 53.1278 61.8054 54.5334 59.6437 58.7501C58.5629 60.8585 57.4821 63.6697 57.6356 66.5863C57.6442 67.6405 57.668 68.6771 57.7112 69.6926C57.9187 74.7774 58.537 79.4017 59.5681 83.5623C61.6282 91.8869 64.9117 98.2085 69.4166 102.524C73.9215 106.842 79.2327 109 85.3524 109C91.0895 109 96.4742 107.015 101.511 103.044C106.548 99.073 110.828 93.1835 114.355 85.3755C116.472 80.6914 118.166 75.3361 119.442 69.3096C119.654 68.3046 119.855 67.282 120.045 66.2419C121.472 60.5071 124.282 56.6417 127.308 52.7764C131.848 47.154 125.579 41.883 123.417 37.6663C122.552 35.5579 121.472 33.4495 121.238 30.8984C121.1 29.9847 120.942 29.0887 120.771 28.2137C120.598 27.3387 120.41 26.4813 120.205 25.6415C118.154 17.2501 114.883 10.8757 110.389 6.52545H110.387ZM109.129 53.0505C106.124 56.2903 103.746 60.1557 101.69 64.8609C101.407 65.7359 101.18 66.5828 100.942 67.405C100.705 68.2238 100.452 69.0179 100.188 69.784C98.6056 74.3768 96.619 77.8837 94.2282 80.3013C91.8374 82.7189 89.0921 83.9277 85.9901 83.9277C83.2707 83.9277 81.0658 82.9087 79.3776 80.8706C77.6893 78.8325 76.5609 75.7753 75.9989 71.6991C75.8108 70.3427 75.6919 68.8669 75.6422 67.2785C75.6184 66.4844 75.612 65.6621 75.6746 64.8082C77.5877 57.3445 82.7757 54.5334 86.4505 49.2624C86.6667 48.5596 86.8829 47.8568 86.8829 47.154C86.0182 41.883 79.9655 37.6663 83.2599 31.6539C83.6166 31.1197 83.9862 30.6137 84.3667 30.1393C84.7472 29.665 85.1406 29.2187 85.5426 28.804C87.9637 26.3161 90.7479 25.0722 93.8932 25.0722C96.6558 25.0722 98.8542 26.1369 100.491 28.2594C100.899 28.79 101.273 29.3838 101.612 30.0445C101.952 30.7051 102.261 31.4255 102.615 32.2126C104.392 36.6156 107.203 39.7782 109.58 43.9949C110.445 45.4005 112.174 46.4547 110.86 50.0917C110.471 51.051 109.868 52.0384 109.129 53.0505Z"/>
<path d="M176.374 1.45135L173.499 29.7845C173.417 30.5927 173.343 31.3869 173.363 32.1529C173.352 36.6157 175.081 40.1296 177.027 42.9408C168.812 42.9408 160.814 45.0492 152.816 41.8866C151.087 41.5352 149.79 36.2643 149.937 32.1529C149.945 31.3869 149.993 30.5927 150.04 29.7845L152.915 1.45135H135.196L132.2 30.7895C130.983 37.6699 136.171 41.1838 137.684 46.8062V48.5632C135.09 55.5911 129.038 57.3481 128.549 66.6496C128.441 67.6441 128.337 68.635 128.236 69.6189L124.362 107.556H142.081L146.288 66.1085H169.744L165.537 107.556H183.256L187.13 69.6189C187.234 68.635 187.338 67.6476 187.444 66.6496C188.914 57.3481 195.182 55.5911 198.641 49.266C198.857 48.9146 199.073 48.2118 198.857 47.509C196.479 41.5352 190.427 39.0755 191.095 30.7895L194.091 1.45135H176.372H176.374Z"/>
<path d="M238.152 56.9897C237.986 56.9967 237.769 56.9967 237.553 56.9967C238.418 53.8341 241.012 50.3202 239.283 47.509C236.04 40.481 230.204 38.7241 227.233 31.8191C226.896 30.9547 226.622 30.0867 226.347 29.2188L217.549 1.45135H202.506L199.51 30.7895C198.859 38.0213 204.264 40.8324 205.344 46.4548C206.858 53.4827 199.724 55.2397 197.346 60.5107C196.482 62.2677 196.049 64.3761 195.848 66.6496L191.672 107.556H209.391L213.455 68.0622C213.55 67.1486 213.641 66.2525 213.768 65.3846C215.072 59.4565 218.098 54.1855 221.773 51.7258C221.125 55.9425 218.098 59.8079 219.65 64.738L233.357 107.556H248.145L252.322 66.6496C252.901 58.7537 257.873 55.9425 260.899 51.3744C261.548 50.3202 262.196 48.9146 261.98 47.509C260.251 41.5352 255.063 38.3727 255.984 30.7895L258.98 1.45135H241.26L238.457 29.2188C238.357 30.2097 238.256 31.2006 238.204 32.1881C237.988 37.315 240.798 40.8289 242.743 44.6943C245.121 49.9653 240.582 53.1278 238.718 56.178C238.34 56.7051 238.154 56.9862 238.154 56.9862L238.152 56.9897Z"/>
<path d="M312.137 1.45135L309.355 28.8111C309.256 29.7951 309.154 30.786 309.085 31.784C308.67 38.3727 312.561 41.8866 315.155 45.752C316.452 47.8604 315.371 50.3202 314.29 51.7258C310.831 55.2397 307.157 58.7537 305.7 65.0086C305.533 66.4071 305.404 67.6792 305.289 68.8001L304.742 74.1871C304.444 76.8823 303.966 79.1523 303.309 81.0007C302.65 82.849 301.822 84.2476 300.823 85.1963C299.824 86.1451 298.666 86.6195 297.349 86.6195C296.033 86.6195 294.969 86.1627 294.163 85.2455C293.354 84.3319 292.803 82.9685 292.505 81.1518C292.207 79.3386 292.166 77.0861 292.377 74.3909H274.658C273.809 82.5433 274.154 89.1636 275.694 94.2589C277.235 99.3541 279.613 103.082 282.831 105.451C286.05 107.816 289.742 109 293.906 109C298.75 109 303.179 107.542 307.196 104.622C311.212 101.705 314.537 97.6288 317.172 92.3965C319.807 87.1642 321.484 81.092 322.208 74.1871L322.755 68.8001C322.87 67.6792 323 66.4071 323.203 65.0086C325.098 56.9967 330.719 55.2397 333.961 48.9146C334.177 48.2118 333.961 47.509 333.745 46.8062C331.151 41.8866 326.179 39.0755 326.551 31.784C326.62 30.786 326.72 29.7951 326.819 28.8111L329.601 1.45135H312.137Z"/>
<path d="M357.392 1.45141L347.952 32.3849C347.686 33.2564 347.465 34.1349 347.42 35.0239C347.147 41.1839 352.119 41.8867 353.416 47.5091C353.632 48.2119 353.632 48.9146 353.2 49.6174C348.444 56.294 341.527 57.3482 337.755 65.7923L325.01 107.552H344.132L349.992 87.2451H371.514L373.198 107.552H392.32L388.191 66.6462C386.92 59.4531 391.459 55.9391 393.837 51.3709C394.918 48.9111 393.837 46.4514 392.54 44.6944C389.082 40.829 385.407 37.315 384.585 30.7861C384.484 29.8619 384.389 28.9518 384.293 28.0522L381.609 1.4479H357.387L357.392 1.45141ZM356.218 65.6939C358.82 57.6996 366.602 55.9426 367.035 46.8063C367.251 42.5895 364.008 38.7241 365.424 34.3141C365.911 32.0722 366.315 30.6701 366.315 30.6701H366.825C366.825 30.6701 366.955 32.0722 367.534 34.3141C368.98 40.1297 373.736 43.6437 373.304 50.6716C372.871 55.9426 370.277 60.1594 369.413 65.7817C369.413 65.7817 368.332 65.7817 367.616 65.6939H356.218Z"/>
<path d="M448.155 1.45141L445.352 29.2188C445.252 30.2098 445.151 31.2007 445.112 32.1881C444.857 38.3692 449.612 41.5318 450.261 47.1542C450.909 51.7223 447.235 54.8849 444.857 56.9933C445.505 53.8307 448.099 51.3709 447.018 48.5597C444.641 42.2346 440.101 40.4776 436.426 36.2608C435.345 34.8552 434.697 33.4497 434.126 31.8157C433.793 30.9512 433.519 30.0833 433.242 29.2153L424.446 1.4479H409.403L406.407 30.7861C406.811 38.7206 414.377 41.5318 413.945 48.5597C413.513 54.5335 407.892 56.9933 404.65 61.5614C403.785 62.967 403.137 64.724 402.745 66.6462L398.569 107.552H416.288L420.352 68.0588C420.447 67.1451 420.54 66.2491 420.67 65.3811C421.943 59.4531 424.753 54.1821 428.428 51.7223C427.78 55.9391 424.969 59.8045 426.547 64.7346C426.787 65.483 427.032 66.2526 427.282 67.0397L440.252 107.552H455.04L459.217 66.6462C459.338 64.0212 460.202 62.2642 461.067 60.5072C463.445 55.5877 468.417 53.8307 468.633 48.5597C468.849 41.8832 461.932 38.7206 462.879 30.7861L465.875 1.4479H448.155V1.45141Z"/>
<path d="M513.044 1.45141L510.241 29.2188C510.141 30.2098 510.04 31.2007 509.996 32.1881C509.707 38.7206 514.246 41.5318 514.895 47.1542C515.543 51.7223 511.868 54.8849 509.49 56.9933C510.787 53.1279 512.733 48.5597 509.49 45.0458C505.816 40.4776 501.276 38.3692 499.006 31.8157C498.678 30.9512 498.403 30.0833 498.129 29.2153L489.333 1.4479H474.29L471.294 30.7861C470.581 37.315 474.904 40.4776 476.633 45.3972C479.227 52.7765 471.661 54.5335 469.5 59.4531C468.419 61.5614 467.987 64.0212 467.632 66.6462L463.456 107.552H481.175L485.239 68.0588C485.334 67.1451 485.425 66.2491 485.561 65.3811C487.009 59.1017 490.468 54.8849 493.927 51.7223C493.278 56.2905 489.819 59.8045 491.432 64.7346C491.672 65.483 491.918 66.2526 492.169 67.0397L505.139 107.552H519.927L524.103 66.6462C525.052 56.9933 532.186 56.2905 534.996 48.5597C534.996 47.8569 534.78 47.1542 534.564 46.4514C531.97 41.8832 526.782 38.0178 527.765 30.7861L530.761 1.4479H513.042L513.044 1.45141Z"/>
<path d="M528.342 107.552H575.255L577.676 84.3424H548.483L550.134 67.4578C550.216 66.6144 550.266 66.1084 550.266 66.1084H558.777C562.017 66.133 565.476 66.133 568.653 66.1084H577.164C578.443 58.4023 583.415 55.5911 585.361 48.9145C586.009 46.4547 584.712 43.6436 584.064 43.6436C574.985 41.5352 565.906 45.0492 557.043 41.8866C554.449 41.1838 553.368 34.5072 554.008 29.3909L554.471 24.6646H583.789L586.21 1.4548H539.17L536.174 30.793C535.422 38.7275 542.772 41.5387 542.123 48.5666C541.691 54.189 536.503 55.5946 534.125 60.8655C533.26 62.2711 532.396 64.0281 532.51 66.6531L528.334 107.559L528.342 107.552Z"/>
<path d="M590.804 24.6611H610.436L610.01 28.8639C609.919 29.7529 609.818 30.7649 609.746 31.8859C609.792 33.4531 609.792 35.2101 610.224 36.6157C611.521 42.238 619.303 45.4006 615.412 51.3744C612.17 55.9425 606.982 58.4023 606.232 66.1085L602.023 107.556H619.487L623.696 66.1085C624.707 59.1051 629.247 55.9425 632.273 51.023C635.948 45.752 629.247 42.238 627.95 37.6699C627.517 35.9129 626.869 34.1559 627.206 31.8859C627.284 30.7649 627.386 29.7529 627.476 28.8639L627.902 24.6611H647.534L649.956 1.45135H593.227L590.806 24.6611H590.804Z"/>
<path d="M652.376 24.6611H672.009L671.583 28.8639C671.492 29.7529 671.39 30.7649 671.315 31.8859C670.967 34.1559 671.615 35.9129 672.047 37.6699C673.344 42.238 678.1 43.6436 677.452 47.8604C676.587 56.2939 668.805 56.9967 667.802 66.1085L663.593 107.556H681.057L684.979 68.9337C685.074 67.9919 685.169 67.0502 685.266 66.1085C686.315 59.1051 690.638 55.9425 693.88 51.3744C694.529 50.3202 694.961 48.5632 694.529 47.1576C692.8 41.8866 688.476 38.7241 688.772 31.8859C688.854 30.7649 688.958 29.7529 689.047 28.8639L689.473 24.6611H709.105L711.526 1.45135H654.797L652.376 24.6611Z"/>
<path d="M761.242 1.45135L749.997 29.8267C749.731 30.5611 749.47 31.285 749.239 31.9913C747.704 35.9164 748.352 41.1874 750.298 44.3499C746.623 42.9443 744.029 38.0248 741.666 33.3828C741.379 32.5852 741.148 31.7629 740.899 30.9195L735.235 1.45486H715.476L721.911 29.7037C722.114 30.5927 722.322 31.4888 722.603 32.3884C725.871 40.4846 733.869 40.4846 735.382 48.9181C736.679 54.8918 727.6 58.0544 730.326 66.6285L732.051 74.1906L728.61 107.556H746.201L749.643 74.1906L752.375 67.8514C752.799 66.8675 753.264 65.7887 753.852 64.6256C757.648 57.3481 763.7 55.2397 767.807 48.5632C768.456 47.8604 768.888 46.4548 768.456 45.0492C766.727 40.481 766.294 34.5073 768.508 30.4276L781 1.45135H761.24H761.242Z"/>
</mask>
<path d="M30.5368 74.1871C30.2385 76.8823 29.7607 79.1523 29.1036 81.0007C28.4443 82.849 27.6164 84.2476 26.6177 85.1963C25.619 86.1451 24.4603 86.6195 23.1439 86.6195C21.8274 86.6195 20.7639 86.1627 19.9576 85.2455C19.1491 84.3319 18.5979 82.9685 18.2996 81.1518C18.0013 79.3386 17.9602 77.0861 18.1721 74.3909H0.4529C-0.396634 82.5433 -0.0507674 89.1636 1.48834 94.2589C3.0296 99.3541 5.40744 103.082 8.62615 105.451C11.8449 107.816 15.537 109 19.7004 109C24.5447 109 28.9739 107.542 32.9903 104.622C37.0066 101.705 40.3313 97.6288 42.9664 92.3965C45.6014 87.1642 47.2789 81.092 48.003 74.1871L48.5499 68.8001C48.6645 67.6792 48.7942 66.4071 48.9477 65.0086C49.2698 64.0247 49.4859 62.6191 49.9183 61.5649C52.0799 55.9425 60.2943 52.4286 56.8356 44.6978C55.1063 41.5352 52.9446 39.0755 52.1426 34.7919C52.108 33.7834 52.2096 32.7819 52.3112 31.784L55.3938 1.45135H37.9297L35.1476 28.8111C35.0482 29.7951 34.9466 30.786 34.8817 31.784C34.3543 39.7783 39.5423 42.238 42.3524 46.8062C42.5686 47.509 42.7848 48.2118 42.5686 48.9146C38.8938 54.5369 33.0573 56.6453 31.4836 65.0086C31.328 66.4071 31.1983 67.6792 31.0837 68.8001L30.5368 74.1871Z" stroke="#FCF6EA" stroke-width="4" mask="url(#path-1-inside-1_21_63)"/>
<path d="M110.387 6.52545C105.893 2.17515 100.607 0 94.5308 0C88.4544 0 83.3226 2.02053 78.2449 6.0616C73.1671 10.1027 68.8654 16.0589 65.3376 23.9337C64.2784 26.2951 63.3294 28.8216 62.4842 31.5133C62.2875 32.4094 62.121 33.3265 62.1145 34.2612C62.2377 39.4233 66.3449 42.2344 66.1287 47.5054C65.9126 53.1278 61.8054 54.5334 59.6437 58.7501C58.5629 60.8585 57.4821 63.6697 57.6356 66.5863C57.6442 67.6405 57.668 68.6771 57.7112 69.6926C57.9187 74.7774 58.537 79.4017 59.5681 83.5623C61.6282 91.8869 64.9117 98.2085 69.4166 102.524C73.9215 106.842 79.2327 109 85.3524 109C91.0895 109 96.4742 107.015 101.511 103.044C106.548 99.073 110.828 93.1835 114.355 85.3755C116.472 80.6914 118.166 75.3361 119.442 69.3096C119.654 68.3046 119.855 67.282 120.045 66.2419C121.472 60.5071 124.282 56.6417 127.308 52.7764C131.848 47.154 125.579 41.883 123.417 37.6663C122.552 35.5579 121.472 33.4495 121.238 30.8984C121.1 29.9847 120.942 29.0887 120.771 28.2137C120.598 27.3387 120.41 26.4813 120.205 25.6415C118.154 17.2501 114.883 10.8757 110.389 6.52545H110.387ZM109.129 53.0505C106.124 56.2903 103.746 60.1557 101.69 64.8609C101.407 65.7359 101.18 66.5828 100.942 67.405C100.705 68.2238 100.452 69.0179 100.188 69.784C98.6056 74.3768 96.619 77.8837 94.2282 80.3013C91.8374 82.7189 89.0921 83.9277 85.9901 83.9277C83.2707 83.9277 81.0658 82.9087 79.3776 80.8706C77.6893 78.8325 76.5609 75.7753 75.9989 71.6991C75.8108 70.3427 75.6919 68.8669 75.6422 67.2785C75.6184 66.4844 75.612 65.6621 75.6746 64.8082C77.5877 57.3445 82.7757 54.5334 86.4505 49.2624C86.6667 48.5596 86.8829 47.8568 86.8829 47.154C86.0182 41.883 79.9655 37.6663 83.2599 31.6539C83.6166 31.1197 83.9862 30.6137 84.3667 30.1393C84.7472 29.665 85.1406 29.2187 85.5426 28.804C87.9637 26.3161 90.7479 25.0722 93.8932 25.0722C96.6558 25.0722 98.8542 26.1369 100.491 28.2594C100.899 28.79 101.273 29.3838 101.612 30.0445C101.952 30.7051 102.261 31.4255 102.615 32.2126C104.392 36.6156 107.203 39.7782 109.58 43.9949C110.445 45.4005 112.174 46.4547 110.86 50.0917C110.471 51.051 109.868 52.0384 109.129 53.0505Z" stroke="#FCF6EA" stroke-width="4" mask="url(#path-1-inside-1_21_63)"/>
<path d="M176.374 1.45135L173.499 29.7845C173.417 30.5927 173.343 31.3869 173.363 32.1529C173.352 36.6157 175.081 40.1296 177.027 42.9408C168.812 42.9408 160.814 45.0492 152.816 41.8866C151.087 41.5352 149.79 36.2643 149.937 32.1529C149.945 31.3869 149.993 30.5927 150.04 29.7845L152.915 1.45135H135.196L132.2 30.7895C130.983 37.6699 136.171 41.1838 137.684 46.8062V48.5632C135.09 55.5911 129.038 57.3481 128.549 66.6496C128.441 67.6441 128.337 68.635 128.236 69.6189L124.362 107.556H142.081L146.288 66.1085H169.744L165.537 107.556H183.256L187.13 69.6189C187.234 68.635 187.338 67.6476 187.444 66.6496C188.914 57.3481 195.182 55.5911 198.641 49.266C198.857 48.9146 199.073 48.2118 198.857 47.509C196.479 41.5352 190.427 39.0755 191.095 30.7895L194.091 1.45135H176.372H176.374Z" stroke="#FCF6EA" stroke-width="4" mask="url(#path-1-inside-1_21_63)"/>
<path d="M238.152 56.9897C237.986 56.9967 237.769 56.9967 237.553 56.9967C238.418 53.8341 241.012 50.3202 239.283 47.509C236.04 40.481 230.204 38.7241 227.233 31.8191C226.896 30.9547 226.622 30.0867 226.347 29.2188L217.549 1.45135H202.506L199.51 30.7895C198.859 38.0213 204.264 40.8324 205.344 46.4548C206.858 53.4827 199.724 55.2397 197.346 60.5107C196.482 62.2677 196.049 64.3761 195.848 66.6496L191.672 107.556H209.391L213.455 68.0622C213.55 67.1486 213.641 66.2525 213.768 65.3846C215.072 59.4565 218.098 54.1855 221.773 51.7258C221.125 55.9425 218.098 59.8079 219.65 64.738L233.357 107.556H248.145L252.322 66.6496C252.901 58.7537 257.873 55.9425 260.899 51.3744C261.548 50.3202 262.196 48.9146 261.98 47.509C260.251 41.5352 255.063 38.3727 255.984 30.7895L258.98 1.45135H241.26L238.457 29.2188C238.357 30.2097 238.256 31.2006 238.204 32.1881C237.988 37.315 240.798 40.8289 242.743 44.6943C245.121 49.9653 240.582 53.1278 238.718 56.178C238.34 56.7051 238.154 56.9862 238.154 56.9862L238.152 56.9897Z" stroke="#FCF6EA" stroke-width="4" mask="url(#path-1-inside-1_21_63)"/>
<path d="M312.137 1.45135L309.355 28.8111C309.256 29.7951 309.154 30.786 309.085 31.784C308.67 38.3727 312.561 41.8866 315.155 45.752C316.452 47.8604 315.371 50.3202 314.29 51.7258C310.831 55.2397 307.157 58.7537 305.7 65.0086C305.533 66.4071 305.404 67.6792 305.289 68.8001L304.742 74.1871C304.444 76.8823 303.966 79.1523 303.309 81.0007C302.65 82.849 301.822 84.2476 300.823 85.1963C299.824 86.1451 298.666 86.6195 297.349 86.6195C296.033 86.6195 294.969 86.1627 294.163 85.2455C293.354 84.3319 292.803 82.9685 292.505 81.1518C292.207 79.3386 292.166 77.0861 292.377 74.3909H274.658C273.809 82.5433 274.154 89.1636 275.694 94.2589C277.235 99.3541 279.613 103.082 282.831 105.451C286.05 107.816 289.742 109 293.906 109C298.75 109 303.179 107.542 307.196 104.622C311.212 101.705 314.537 97.6288 317.172 92.3965C319.807 87.1642 321.484 81.092 322.208 74.1871L322.755 68.8001C322.87 67.6792 323 66.4071 323.203 65.0086C325.098 56.9967 330.719 55.2397 333.961 48.9146C334.177 48.2118 333.961 47.509 333.745 46.8062C331.151 41.8866 326.179 39.0755 326.551 31.784C326.62 30.786 326.72 29.7951 326.819 28.8111L329.601 1.45135H312.137Z" stroke="#FCF6EA" stroke-width="4" mask="url(#path-1-inside-1_21_63)"/>
<path d="M357.392 1.45141L347.952 32.3849C347.686 33.2564 347.465 34.1349 347.42 35.0239C347.147 41.1839 352.119 41.8867 353.416 47.5091C353.632 48.2119 353.632 48.9146 353.2 49.6174C348.444 56.294 341.527 57.3482 337.755 65.7923L325.01 107.552H344.132L349.992 87.2451H371.514L373.198 107.552H392.32L388.191 66.6462C386.92 59.4531 391.459 55.9391 393.837 51.3709C394.918 48.9111 393.837 46.4514 392.54 44.6944C389.082 40.829 385.407 37.315 384.585 30.7861C384.484 29.8619 384.389 28.9518 384.293 28.0522L381.609 1.4479H357.387L357.392 1.45141ZM356.218 65.6939C358.82 57.6996 366.602 55.9426 367.035 46.8063C367.251 42.5895 364.008 38.7241 365.424 34.3141C365.911 32.0722 366.315 30.6701 366.315 30.6701H366.825C366.825 30.6701 366.955 32.0722 367.534 34.3141C368.98 40.1297 373.736 43.6437 373.304 50.6716C372.871 55.9426 370.277 60.1594 369.413 65.7817C369.413 65.7817 368.332 65.7817 367.616 65.6939H356.218Z" stroke="#FCF6EA" stroke-width="4" mask="url(#path-1-inside-1_21_63)"/>
<path d="M448.155 1.45141L445.352 29.2188C445.252 30.2098 445.151 31.2007 445.112 32.1881C444.857 38.3692 449.612 41.5318 450.261 47.1542C450.909 51.7223 447.235 54.8849 444.857 56.9933C445.505 53.8307 448.099 51.3709 447.018 48.5597C444.641 42.2346 440.101 40.4776 436.426 36.2608C435.345 34.8552 434.697 33.4497 434.126 31.8157C433.793 30.9512 433.519 30.0833 433.242 29.2153L424.446 1.4479H409.403L406.407 30.7861C406.811 38.7206 414.377 41.5318 413.945 48.5597C413.513 54.5335 407.892 56.9933 404.65 61.5614C403.785 62.967 403.137 64.724 402.745 66.6462L398.569 107.552H416.288L420.352 68.0588C420.447 67.1451 420.54 66.2491 420.67 65.3811C421.943 59.4531 424.753 54.1821 428.428 51.7223C427.78 55.9391 424.969 59.8045 426.547 64.7346C426.787 65.483 427.032 66.2526 427.282 67.0397L440.252 107.552H455.04L459.217 66.6462C459.338 64.0212 460.202 62.2642 461.067 60.5072C463.445 55.5877 468.417 53.8307 468.633 48.5597C468.849 41.8832 461.932 38.7206 462.879 30.7861L465.875 1.4479H448.155V1.45141Z" stroke="#FCF6EA" stroke-width="4" mask="url(#path-1-inside-1_21_63)"/>
<path d="M513.044 1.45141L510.241 29.2188C510.141 30.2098 510.04 31.2007 509.996 32.1881C509.707 38.7206 514.246 41.5318 514.895 47.1542C515.543 51.7223 511.868 54.8849 509.49 56.9933C510.787 53.1279 512.733 48.5597 509.49 45.0458C505.816 40.4776 501.276 38.3692 499.006 31.8157C498.678 30.9512 498.403 30.0833 498.129 29.2153L489.333 1.4479H474.29L471.294 30.7861C470.581 37.315 474.904 40.4776 476.633 45.3972C479.227 52.7765 471.661 54.5335 469.5 59.4531C468.419 61.5614 467.987 64.0212 467.632 66.6462L463.456 107.552H481.175L485.239 68.0588C485.334 67.1451 485.425 66.2491 485.561 65.3811C487.009 59.1017 490.468 54.8849 493.927 51.7223C493.278 56.2905 489.819 59.8045 491.432 64.7346C491.672 65.483 491.918 66.2526 492.169 67.0397L505.139 107.552H519.927L524.103 66.6462C525.052 56.9933 532.186 56.2905 534.996 48.5597C534.996 47.8569 534.78 47.1542 534.564 46.4514C531.97 41.8832 526.782 38.0178 527.765 30.7861L530.761 1.4479H513.042L513.044 1.45141Z" stroke="#FCF6EA" stroke-width="4" mask="url(#path-1-inside-1_21_63)"/>
<path d="M528.342 107.552H575.255L577.676 84.3424H548.483L550.134 67.4578C550.216 66.6144 550.266 66.1084 550.266 66.1084H558.777C562.017 66.133 565.476 66.133 568.653 66.1084H577.164C578.443 58.4023 583.415 55.5911 585.361 48.9145C586.009 46.4547 584.712 43.6436 584.064 43.6436C574.985 41.5352 565.906 45.0492 557.043 41.8866C554.449 41.1838 553.368 34.5072 554.008 29.3909L554.471 24.6646H583.789L586.21 1.4548H539.17L536.174 30.793C535.422 38.7275 542.772 41.5387 542.123 48.5666C541.691 54.189 536.503 55.5946 534.125 60.8655C533.26 62.2711 532.396 64.0281 532.51 66.6531L528.334 107.559L528.342 107.552Z" stroke="#FCF6EA" stroke-width="4" mask="url(#path-1-inside-1_21_63)"/>
<path d="M590.804 24.6611H610.436L610.01 28.8639C609.919 29.7529 609.818 30.7649 609.746 31.8859C609.792 33.4531 609.792 35.2101 610.224 36.6157C611.521 42.238 619.303 45.4006 615.412 51.3744C612.17 55.9425 606.982 58.4023 606.232 66.1085L602.023 107.556H619.487L623.696 66.1085C624.707 59.1051 629.247 55.9425 632.273 51.023C635.948 45.752 629.247 42.238 627.95 37.6699C627.517 35.9129 626.869 34.1559 627.206 31.8859C627.284 30.7649 627.386 29.7529 627.476 28.8639L627.902 24.6611H647.534L649.956 1.45135H593.227L590.806 24.6611H590.804Z" stroke="#FCF6EA" stroke-width="4" mask="url(#path-1-inside-1_21_63)"/>
<path d="M652.376 24.6611H672.009L671.583 28.8639C671.492 29.7529 671.39 30.7649 671.315 31.8859C670.967 34.1559 671.615 35.9129 672.047 37.6699C673.344 42.238 678.1 43.6436 677.452 47.8604C676.587 56.2939 668.805 56.9967 667.802 66.1085L663.593 107.556H681.057L684.979 68.9337C685.074 67.9919 685.169 67.0502 685.266 66.1085C686.315 59.1051 690.638 55.9425 693.88 51.3744C694.529 50.3202 694.961 48.5632 694.529 47.1576C692.8 41.8866 688.476 38.7241 688.772 31.8859C688.854 30.7649 688.958 29.7529 689.047 28.8639L689.473 24.6611H709.105L711.526 1.45135H654.797L652.376 24.6611Z" stroke="#FCF6EA" stroke-width="4" mask="url(#path-1-inside-1_21_63)"/>
<path d="M761.242 1.45135L749.997 29.8267C749.731 30.5611 749.47 31.285 749.239 31.9913C747.704 35.9164 748.352 41.1874 750.298 44.3499C746.623 42.9443 744.029 38.0248 741.666 33.3828C741.379 32.5852 741.148 31.7629 740.899 30.9195L735.235 1.45486H715.476L721.911 29.7037C722.114 30.5927 722.322 31.4888 722.603 32.3884C725.871 40.4846 733.869 40.4846 735.382 48.9181C736.679 54.8918 727.6 58.0544 730.326 66.6285L732.051 74.1906L728.61 107.556H746.201L749.643 74.1906L752.375 67.8514C752.799 66.8675 753.264 65.7887 753.852 64.6256C757.648 57.3481 763.7 55.2397 767.807 48.5632C768.456 47.8604 768.888 46.4548 768.456 45.0492C766.727 40.481 766.294 34.5073 768.508 30.4276L781 1.45135H761.24H761.242Z" stroke="#FCF6EA" stroke-width="4" mask="url(#path-1-inside-1_21_63)"/>
</svg>
